<svg xmlns="http://www.w3.org/2000/svg" width="44.096" height="50.813" viewBox="0 0 44.096 50.813">
  <path id="Tracé_1086" data-name="Tracé 1086" d="M8333.676,1774.129h.058s-.023-1.3-.186-2.713c-.121-.059-.243-.118-.366-.175.019.241.044.486.077.73a7.565,7.565,0,0,1,.014-2.548l.546.091c4.24-.468,15.78-5.07,18.778-4.888,4.5.273,4.913-.273.752-1.774,0,0,4.893.408-2.955-2.117,0,0-11.253-10.079-16.575-12.065-2.628-.981-7.56-.3-7.56-4.015,0-2.559-.173-11.029-2.16-15.277a4.258,4.258,0,0,0-2.216-2.289,5.6,5.6,0,0,0-4.575-.065,8.866,8.866,0,0,1-1.7.643,9.513,9.513,0,0,0-2.989,1.1c-.014.01-.027.02-.039.029s-.045.035-.064.053a1.012,1.012,0,0,0-.346.5.017.017,0,0,0,0,.009.68.68,0,0,0-.024.19c0,.008,0,.017,0,.026a.791.791,0,0,0,.03.2s.015,0,.035,0l.031,0,.05,0h.022a3.064,3.064,0,0,1,.593,0,2.163,2.163,0,0,1,.228.036h0c.353.078,2.776.961,3.049,1.117h.035a6.419,6.419,0,0,0,3.041,1.714c.914.325,2.671,5.4-.421,14.8-1.978,6.01-1.837,11.036,4.742,15.615,0,0,5.827,5.1,7.192,6l.029,0-.021,0a1.183,1.183,0,0,0,.222.122c.905,1.535.983,6.081.983,6.081s-9.167.176-6.324.7c.227.042.423.085.6.129,1.512.378,1.32.822,1.646,1.078a1.943,1.943,0,0,0,1.169.209,25.232,25.232,0,0,0,4.958-.547C8334.372,1776.784,8334.028,1775.623,8333.676,1774.129Zm0,0c-.157-.672-.316-1.411-.416-2.148C8333.359,1772.718,8333.519,1773.457,8333.676,1774.129Z" transform="translate(-8312.142 -1726.576)" fill="#6a6a6a"/>
</svg>
