<svg xmlns="http://www.w3.org/2000/svg" xmlns:xlink="http://www.w3.org/1999/xlink" width="173" height="130.073" viewBox="0 0 173 130.073">
  <defs>
    <clipPath id="clip-path">
      <path id="Tracé_14" data-name="Tracé 14" d="M0,54.093H173V-75.98H0Z" transform="translate(0 75.98)" fill="#fff"/>
    </clipPath>
  </defs>
  <g id="Groupe_126" data-name="Groupe 126" transform="translate(0 75.98)">
    <g id="Groupe_14" data-name="Groupe 14" transform="translate(0 -75.98)" clip-path="url(#clip-path)">
      <g id="Groupe_1" data-name="Groupe 1" transform="translate(37.939 33.431)">
        <path id="Tracé_1" data-name="Tracé 1" d="M7.141,8.542c-.123,0-.772.041-.9.041a1.383,1.383,0,0,1-.936-.366c-.651-.49-.731-.654-1.056-1.835C4.171,6.056,3.642,4.508,3.6,4.14c-.041-.163-.041-.325-.082-.49-.041-.08-.284-.57-.447-.57-.082,0-.2.123-.284.245-.082.2-.325,1.346-.366,1.589-.123.409-.245.815-.327,1.222-.039.286-.08.572-.122.856-.245.979-.529,1.224-.733,1.346-.366.2-.407.2-2.075.245-.243,0-1.465.082-1.75.082-1.1,0-1.424-.611-1.832-1.508a11.64,11.64,0,0,1-.529-1.346c-.2-.693-.609-1.914-.894-2.648-.123-.286-.245-.611-.368-.9C-6.45,1.451-6.614.634-6.857-.179c-.122-.368-.286-.733-.447-1.142-.123-.366-.247-.734-.407-1.1C-7.956-3.2-8.24-3.928-8.524-4.7c-.245-.774-.856-2.934-.856-3.016-.163-.57-.243-1.181-.407-1.792a2.415,2.415,0,0,1-.243-1.1,1.424,1.424,0,0,1,1.383-1.346c.243,0,1.385.041,1.669.041.163,0,1.017-.08,1.221-.08,1.342,0,1.546.407,1.709.774.2.449.57,1.426.733,1.876s.243.856.407,1.3a9.081,9.081,0,0,1,.325.978c.08.409.163.856.284,1.265a7.854,7.854,0,0,0,.327.9c.039.082.69,2.078.731,2.243.082.447.284,1.426.611,1.426.2,0,.609-.9.692-1.549.041-.164.082-.366.122-.529a4,4,0,0,1,.163-.531,4.971,4.971,0,0,0,.082-.815A5.381,5.381,0,0,0,.143-6.333C.1-6.5.02-6.658-.021-6.823-.062-7.109-.062-7.352-.1-7.6c-.079-.284-.649-1.916-.772-2.362A1.4,1.4,0,0,1-1-10.49a2.007,2.007,0,0,1,.325-1.019,1.689,1.689,0,0,1,.815-.409c.122,0,.731.082.9.082.243,0,1.424-.082,1.709-.082H3.968c.611,0,1.26,0,1.709,1.467.2.652.245,1.346.407,2,.08.327.2.611.286.9.08.366.243,1.06.324,1.344.123.529.164,1.1.286,1.631.039.325.122.611.163.9a3.951,3.951,0,0,1,.082.693,6.719,6.719,0,0,1,.243.976.6.6,0,0,0,.041.286,1.933,1.933,0,0,1,.122.284c.041.205.082.247.123.247.243,0,.325-.366.325-.49.041-.286.161-.57.243-.9.082-.286.123-.57.2-.856.041-.243.164-.488.2-.733.08-.245.122-.49.2-.734.123-.611.9-3.342,1.056-3.871q.123-.308.247-.611a8.624,8.624,0,0,1,.406-1.712,2.318,2.318,0,0,1,1.587-.734h1.181c.163,0,.854.082,1.015.082.205,0,1.06-.082,1.262-.082a1.265,1.265,0,0,1,1.344,1.222,10.4,10.4,0,0,1-.568,2.121c-.164.529-.366,1.058-.57,1.589-.286.978-.49,1.955-.815,2.893-.245.652-.529,1.3-.733,1.955-.2.491-.894,2.977-1.1,3.547-.122.327-.284.651-.406.978-.245.57-.449,1.222-.652,1.875-.243.734-.366,1.467-.651,2.2-.529,1.385-.69,1.467-1.383,1.792a1.626,1.626,0,0,1-1.221.2Z" transform="translate(10.031 11.998)" fill="#fff"/>
      </g>
      <g id="Groupe_2" data-name="Groupe 2" transform="translate(66.139 33.188)">
        <path id="Tracé_2" data-name="Tracé 2" d="M3.249,2.355c-.2.123-1.18.938-1.18,1.549,0,.979,1.18.979,2.238.979.245,0,.529.039.815.039.08,0,.447-.039.529-.039.12,0,.651.08.772.08A8.807,8.807,0,0,0,7.442,4.8c1.015-.164,1.18-.245,1.18-.652,0-1.875-2.6-2.323-2.888-2.323a5.522,5.522,0,0,0-2.484.529M-4.2,3.987A13,13,0,0,1-3.261,1.7,18.7,18.7,0,0,1-1.715-.417a9.413,9.413,0,0,1,6.1-2.891H6.178a9.336,9.336,0,0,1,3.5.731,10.055,10.055,0,0,1,4.11,4.117,8.036,8.036,0,0,1,.366.9c.082.2.164.368.245.57a14.763,14.763,0,0,1,.568,4.566c0,1.385-.854,1.71-1.464,1.71H12.2c-.49,0-3.011.082-3.581.082-.286,0-1.791-.082-2.116-.082-.286,0-1.669.041-1.994.041H3.167c-.366,0-1.1.041-1.1.611,0,1.142,2.4,2.2,3.417,2.241.164,0,.856-.041,1.019-.041s.813.082.976.082c.122,0,.733-.041.854-.041a4.393,4.393,0,0,0,.813-.122c.409-.08.856-.041,1.263-.08a7.567,7.567,0,0,0,1.015-.286,7.851,7.851,0,0,1,2.239-.652c.854,0,1.14.286,1.14.774,0,.123-.041.245-.041.407a14.092,14.092,0,0,0-.041,1.835c0,.161.041,1.019.041,1.222a.888.888,0,0,1-.447.856,7.211,7.211,0,0,1-3.54,1.465,8.1,8.1,0,0,1-2.037.286c-.243,0-1.544.123-1.828.123-.041,0-1.426-.123-1.548-.123a13.016,13.016,0,0,1-2.523-.325c-.325-.08-2.4-1.019-2.808-1.224A8.723,8.723,0,0,1-3.22,13.156a13.963,13.963,0,0,1-1.344-5.42A33.376,33.376,0,0,1-4.2,3.987" transform="translate(4.564 3.308)" fill="#fff"/>
      </g>
      <g id="Groupe_3" data-name="Groupe 3" transform="translate(88.276 25.281)">
        <path id="Tracé_3" data-name="Tracé 3" d="M.051,9.22c0-.2.041-1.263.041-1.508,0-.2-.041-1.181-.041-1.426,0-.2.123-1.3.123-1.549,0-.161-.082-1.019-.082-1.222,0-.488.041-.978.082-1.467V-.2c0-.365-.082-2.157-.082-2.566V-3.74c.041-.449.163-.9.163-1.344a4.821,4.821,0,0,0-.08-.856c0-.123-.082-.531-.082-1.1,0-.365.041-.733.041-1.1,0-.2.122-1.181.122-1.426,0-.164-.122-1.06-.122-1.263v-.734c0-.733,1.017-1.385,1.912-1.385.163,0,1.1.082,1.3.082.161,0,.935-.082,1.1-.082,1.587,0,1.709.2,2.035.611a1.032,1.032,0,0,1,.243.815c0,.2.041,1.14.041,1.346,0,.406-.122,2.321-.122,2.731,0,.327.163,1.914.163,2.282,0,.2-.082,1.222-.082,1.467,0,.449.041.9.041,1.346,0,.284-.122,1.628-.122,1.914s.08,1.549.08,1.833c0,.245-.039,1.387-.039,1.631,0,.611.08,1.262.08,1.873,0,.082-.08,1.469-.08,1.59a7.158,7.158,0,0,0,.039.9c0,.163-.039.936-.039,1.1s.039.817.039.979c0,.2-.08,1.263-.08,1.508,0,.2.08,1.263.08,1.507,0,.123-.039.734-.039.9,0,.123.08.815.08.979,0,.284-.122.488-.488.813-.447.45-.731.654-1.18.654-.245,0-1.383-.123-1.63-.123-.324,0-1.911.041-2.277.041S.7,15.619.335,15.21a1.346,1.346,0,0,1-.407-.731v-.327A12.3,12.3,0,0,0,.01,12.888c0-.164-.041-.938-.041-1.1,0-.243.082-1.587.082-1.873Z" transform="translate(0.072 12.95)" fill="#fff"/>
      </g>
      <g id="Groupe_4" data-name="Groupe 4" transform="translate(96.741 25.036)">
        <path id="Tracé_4" data-name="Tracé 4" d="M3.232,0C3.516,0,4.86.082,5.146.082h.69a1.889,1.889,0,0,1,1.06.2,1.505,1.505,0,0,1,.609,1.1c0,.123-.041.858-.041,1.02s-.039,1.019-.039,1.222.08,1.14.08,1.385a.916.916,0,0,1-.163.611,4.572,4.572,0,0,1-.815.529,1.608,1.608,0,0,1-.976.164c-1.709,0-2.2.163-2.2,1.058a1.471,1.471,0,0,0,.447.979c.243.243,1.138.243,1.5.243.123,0,.774-.079.9-.079,1.222,0,1.222,1.344,1.222,1.628S7.26,11.9,7.26,12.225c0,.164.041.856.041,1.02a1.186,1.186,0,0,1-.488,1.1c-.245.164-.245.164-1.058.164-1.871,0-1.871.936-1.871,1.753,0,.2-.082,1.058-.082,1.263,0,.406.082,2.362.082,2.77,0,.652-.041,1.3-.041,1.957,0,.325.08,1.792.08,2.16,0,.08-.08.529-.08.609s.08.858.08,1.02S4,27.061,4,27.223A1.723,1.723,0,0,1,2.3,28.975c-.082,0-.611-.041-.731-.041-.449,0-.936.082-1.385.082-.163,0-.936-.041-1.1-.041h-.568a1.173,1.173,0,0,1-.772-.243c-.288-.2-.407-.286-.407-1.549,0-.2.08-1.14.08-1.385V23.882c0-.2-.08-1.262-.08-1.467,0-.327.12-1.753.12-2.078,0-.2-.039-1.3-.039-1.549,0-.327.039-1.873.039-2.241a2.009,2.009,0,0,0-.12-.693c-.286-.693-.286-.733-.693-.9-.2-.122-.447-.161-.651-.284-.325-.2-.529-.327-.529-1.712,0-.163.041-.815.041-.978,0-.327-.041-.611-.041-.938,0-.123.122-1.549.122-1.59.082-.57.245-.692.57-.813.57-.2.611-.2.813-.531.164-.325.164-.325.164-1.346,0-3.422.2-3.951.935-5.013A3.2,3.2,0,0,1-.8.693,4.012,4.012,0,0,1,1.929.082C2.135.082,3.03,0,3.232,0" transform="translate(4.54)" fill="#fff"/>
      </g>
      <g id="Groupe_5" data-name="Groupe 5" transform="translate(131.248 33.431)">
        <path id="Tracé_5" data-name="Tracé 5" d="M.034.9c0-1.753.978-2,1.18-2,.123,0,.611.041.734.041H2.8c.2,0,1.1.039,1.26.039S5-1.1,5.161-1.1c.692,0,.936.406.936.976,0,.7.286.858.406.858a.917.917,0,0,0,.57-.325c.164-.164.245-.286.407-.45a4.2,4.2,0,0,1,2.563-1.222C10.818-1.262,12-1.18,12-.081c0,.245-.041.45-.041.654,0,.08.041.529.041.651s-.041.856-.041,1.02c0,.122.041.815.041.978a3.375,3.375,0,0,1-.041.49V4.933c0,1.344-.407,1.344-1.628,1.344a3.761,3.761,0,0,0-1.546.368c-.978.447-1.426.611-2.28,2.525a2.916,2.916,0,0,0-.161.693c-.041.164-.082.327-.123.529v1.714c0,.286.082,1.671.082,1.955,0,.2-.041,1.222-.041,1.426a2.466,2.466,0,0,0,.041.57c0,.205.122,1.02.122,1.181a2.95,2.95,0,0,1-.447,1.59,1.355,1.355,0,0,1-1.14.49c-.243,0-1.424-.08-1.709-.08-.164,0-.854.041-1.019.041a6.258,6.258,0,0,1-.978.039c-.365,0-.69,0-.974-.692a1.989,1.989,0,0,1-.205-.938c0-.286.082-1.59.082-1.916v-1.3c0-.205.041-1.183.041-1.426s-.082-1.428-.082-1.714c0-1.549.041-1.833.041-2.078s.082-1.017.082-1.14c0-.531-.082-1.06-.082-1.59a3.059,3.059,0,0,1,.041-.611,4.653,4.653,0,0,0,.082-.652c0-.163-.082-.936-.082-1.1V3.18c0-.163-.041-1.1-.041-1.3Z" transform="translate(0.048 1.262)" fill="#fff"/>
      </g>
      <g id="Groupe_6" data-name="Groupe 6" transform="translate(145.206 33.35)">
        <path id="Tracé_6" data-name="Tracé 6" d="M4.451,5.491c0-.123.041-.815.041-.979s-.082-.936-.082-1.14V1.9A3.356,3.356,0,0,0,3.8-.418a1.612,1.612,0,0,0-1.1-.49,4,4,0,0,0-1.3.327,2.433,2.433,0,0,0-1.017,2A8.621,8.621,0,0,0,.258,3.372c0,.164-.08.9-.08,1.061V5.45c0,.123-.039.938-.039,1.1,0,.288.12,1.673.12,1.958,0,.122-.039.652-.039.772,0,.491.039,1.02.08,1.549a1.987,1.987,0,0,1,.041.491,1.413,1.413,0,0,1-1.5,1.587c-.286,0-1.548-.079-1.832-.079a2.657,2.657,0,0,0-.611.079H-4.745c-.611,0-1.465,0-1.465-2,0-.652.082-1.3.082-1.916,0-.08-.041-.447-.041-.529,0-.122.082-.693.082-.815,0-.082-.041-.529-.041-.652,0-.082.041-.529.041-.652,0-.245-.123-1.753-.123-2.078,0-.286.082-1.794.082-2.16,0-.122-.041-.856-.041-1.019,0-.123.041-.693.041-.815,0-.163-.082-.936-.082-1.142s.082-1.222.082-1.467c0-.2-.082-1.3-.082-1.59a4.335,4.335,0,0,1,0-.731c0-.163-.041-.9-.041-1.061,0-.856.734-1.832,1.262-1.832a6.292,6.292,0,0,1,.854.12h1.75a5.18,5.18,0,0,0,.693-.039h.651a.677.677,0,0,1,.651.325,3.223,3.223,0,0,1,.325.652c.082.163.164.327.286.327s.243-.123.325-.2a5.646,5.646,0,0,1,3.172-1.3c.247,0,1.507.041,1.792.041A7.26,7.26,0,0,1,9.048-6.614a3.5,3.5,0,0,0,.9.693.78.78,0,0,0,.406.123c.082,0,.409-.123.49-.123.325-.082.365-.082.529-.366A4.118,4.118,0,0,1,13.4-7.429a5.145,5.145,0,0,1,2.116-.284h.649a6.291,6.291,0,0,1,1.507.245A6.831,6.831,0,0,1,20.322-5.39a5.963,5.963,0,0,1,.324.734c.082.2.205.366.284.529a5.072,5.072,0,0,1,.247.734A4.922,4.922,0,0,1,21.3-1.925c0,.284.122,1.751.122,2.078,0,.2-.041,1.181-.041,1.426,0,.652,0,2.241.041,2.854.041.2.041.447.082.651,0,.122-.041.652-.041.776,0,.243.041,1.424.041,1.669,0,.529.039,3.14.039,3.751,0,.652-.406,1.751-1.383,1.751-.243,0-.488-.082-.731-.082-.123,0-.776.041-.9.041a7.794,7.794,0,0,0-.978-.041c-.163,0-1.06.082-1.3.082a1.088,1.088,0,0,1-1.1-.978c0-.163.041-1.019.041-1.224,0-.243-.082-1.344-.123-1.628,0-.164.041-.979.041-1.144,0-.2-.041-1.14-.041-1.344,0-.449.123-2.731.123-3.26,0-3.994-1.1-4.321-2.32-4.321a1.671,1.671,0,0,0-1.181.409c-.609.407-.854.611-.854,1.914V3.127c0,.449-.08,2.689-.08,3.22,0,.164.08,1.019.08,1.222,0,.123-.041.815-.041.979,0,.12.08.772.08.936,0,.08-.039.57-.039.652,0,.163.122,1.06.122,1.222a1.72,1.72,0,0,1-.243,1.019,1.73,1.73,0,0,1-.854.45c-.123,0-.734-.043-.856-.043-.245,0-1.5.163-1.789.163a4.383,4.383,0,0,1-.734,0c-.122,0-.731.082-.854.082-1.138,0-1.221-1.019-1.221-1.875,0-.245.041-1.508.082-1.794,0-.082-.041-.57-.041-.652,0-.161.082-.9.082-1.058,0-.205-.082-1.02-.082-1.181Z" transform="translate(6.252 7.713)" fill="#fff"/>
      </g>
      <g id="Groupe_7" data-name="Groupe 7" transform="translate(37.656 58.434)">
        <path id="Tracé_7" data-name="Tracé 7" d="M.771.93A2.266,2.266,0,0,0,1.117.9.784.784,0,0,0,1.41.8a.535.535,0,0,0,.2-.216A.756.756,0,0,0,1.689.218a.761.761,0,0,0-.077-.366.558.558,0,0,0-.2-.216.848.848,0,0,0-.293-.1A2.266,2.266,0,0,0,.771-.495H-.04V.93Zm.286-2.236a2,2,0,0,1,.758.128,1.433,1.433,0,0,1,.508.344,1.319,1.319,0,0,1,.286.486A1.789,1.789,0,0,1,2.7.218,1.81,1.81,0,0,1,2.61.781a1.319,1.319,0,0,1-.286.49,1.43,1.43,0,0,1-.508.342,2,2,0,0,1-.758.13H-.04v1.7H-1.083V-1.306Z" transform="translate(1.083 1.306)" fill="#fff"/>
      </g>
      <g id="Groupe_8" data-name="Groupe 8" transform="translate(41.99 59.651)">
        <path id="Tracé_8" data-name="Tracé 8" d="M.373.039v.64H.385a1.152,1.152,0,0,1,.18-.3A1.327,1.327,0,0,1,.823.149,1.388,1.388,0,0,1,1.137,0a1.185,1.185,0,0,1,.346-.053.736.736,0,0,1,.207.034V.857C1.645.849,1.592.842,1.53.835a1.676,1.676,0,0,0-.18-.01,1,1,0,0,0-.44.086.791.791,0,0,0-.289.238A.985.985,0,0,0,.465,1.5a1.916,1.916,0,0,0-.046.431V3.482H-.524V.039Z" transform="translate(0.524 0.055)" fill="#fff"/>
      </g>
      <g id="Groupe_9" data-name="Groupe 9" transform="translate(44.35 59.651)">
        <path id="Tracé_9" data-name="Tracé 9" d="M.409.923a1.055,1.055,0,0,0,.137.354.714.714,0,0,0,.255.25.786.786,0,0,0,.4.092.808.808,0,0,0,.4-.092.728.728,0,0,0,.26-.25A1.129,1.129,0,0,0,2,.923a2.078,2.078,0,0,0,.041-.4A2.149,2.149,0,0,0,2,.115a1.1,1.1,0,0,0-.135-.354A.786.786,0,0,0,1.6-.487a.791.791,0,0,0-.4-.1.769.769,0,0,0-.4.1.77.77,0,0,0-.255.248A1.027,1.027,0,0,0,.409.115,2.018,2.018,0,0,0,.368.523a1.952,1.952,0,0,0,.041.4M-.448-.227a1.579,1.579,0,0,1,.916-.94A1.994,1.994,0,0,1,1.2-1.3a2.01,2.01,0,0,1,.734.13A1.563,1.563,0,0,1,2.5-.8a1.58,1.58,0,0,1,.36.572,2.12,2.12,0,0,1,.125.75,2.075,2.075,0,0,1-.125.743,1.6,1.6,0,0,1-.36.57,1.53,1.53,0,0,1-.562.363,2.01,2.01,0,0,1-.734.127A2,2,0,0,1,.468,2.2a1.56,1.56,0,0,1-.558-.363,1.623,1.623,0,0,1-.358-.57A2.075,2.075,0,0,1-.575.523a2.12,2.12,0,0,1,.127-.75" transform="translate(0.575 1.297)" fill="#fff"/>
      </g>
      <g id="Groupe_10" data-name="Groupe 10" transform="translate(48.2 58.713)">
        <path id="Tracé_10" data-name="Tracé 10" d="M.918.429v.632H.226V2.768a.455.455,0,0,0,.08.317.457.457,0,0,0,.318.08c.053,0,.1,0,.152-.005a1.146,1.146,0,0,0,.14-.022v.734c-.08.012-.169.021-.267.027S.459,3.9.365,3.9a2.5,2.5,0,0,1-.416-.031A.983.983,0,0,1-.4,3.759a.623.623,0,0,1-.236-.248.868.868,0,0,1-.087-.419V1.061h-.57V.429h.57V-.6H.226V.429Z" transform="translate(1.289 0.603)" fill="#fff"/>
      </g>
      <g id="Groupe_11" data-name="Groupe 11" transform="translate(50.692 59.653)">
        <path id="Tracé_11" data-name="Tracé 11" d="M.933.374A.662.662,0,0,0,.418.187.819.819,0,0,0,.041.264.687.687,0,0,0-.2.454.728.728,0,0,0-.325.692,1.29,1.29,0,0,0-.368.918H1.17A1.108,1.108,0,0,0,.933.374M-.135,2.183a.849.849,0,0,0,.611.207.849.849,0,0,0,.493-.142.6.6,0,0,0,.253-.3h.83a1.578,1.578,0,0,1-.611.887,1.8,1.8,0,0,1-1,.267,1.947,1.947,0,0,1-.733-.132A1.533,1.533,0,0,1-.84,2.6a1.649,1.649,0,0,1-.348-.572,2.1,2.1,0,0,1-.123-.733A1.985,1.985,0,0,1-1.184.572,1.63,1.63,0,0,1-.825,0,1.712,1.712,0,0,1-.272-.386,1.8,1.8,0,0,1,.445-.525a1.635,1.635,0,0,1,.764.168A1.537,1.537,0,0,1,1.743.1a1.856,1.856,0,0,1,.3.652,2.461,2.461,0,0,1,.067.765H-.368a.961.961,0,0,0,.233.666" transform="translate(1.311 0.525)" fill="#fff"/>
      </g>
      <g id="Groupe_12" data-name="Groupe 12" transform="translate(54.568 59.652)">
        <path id="Tracé_12" data-name="Tracé 12" d="M.727.3A.661.661,0,0,0,.349.4.829.829,0,0,0,.1.666a1.109,1.109,0,0,0-.135.36,1.89,1.89,0,0,0-.041.39,1.814,1.814,0,0,0,.041.378,1.093,1.093,0,0,0,.13.349A.737.737,0,0,0,.335,2.4a.664.664,0,0,0,.373.1.7.7,0,0,0,.522-.19A.922.922,0,0,0,1.46,1.8h.909a1.545,1.545,0,0,1-.532,1.044,1.715,1.715,0,0,1-1.121.361,1.892,1.892,0,0,1-.709-.13,1.572,1.572,0,0,1-.55-.363,1.63,1.63,0,0,1-.351-.555,1.923,1.923,0,0,1-.127-.712A2.341,2.341,0,0,1-.906.707,1.678,1.678,0,0,1-.562.113,1.555,1.555,0,0,1-.011-.276a1.858,1.858,0,0,1,.745-.14,2.173,2.173,0,0,1,.589.08,1.527,1.527,0,0,1,.5.243,1.283,1.283,0,0,1,.363.4A1.284,1.284,0,0,1,2.348.89H1.425A.634.634,0,0,0,.727.3" transform="translate(1.021 0.416)" fill="#fff"/>
      </g>
      <g id="Groupe_13" data-name="Groupe 13" transform="translate(58.171 58.713)">
        <path id="Tracé_13" data-name="Tracé 13" d="M.918.429v.632H.226V2.768a.455.455,0,0,0,.08.317.457.457,0,0,0,.318.08c.053,0,.1,0,.152-.005a1.146,1.146,0,0,0,.14-.022v.734c-.08.012-.169.021-.267.027S.459,3.9.365,3.9a2.5,2.5,0,0,1-.416-.031A.983.983,0,0,1-.4,3.759a.623.623,0,0,1-.236-.248.868.868,0,0,1-.087-.419V1.061h-.57V.429h.57V-.6H.226V.429Z" transform="translate(1.289 0.603)" fill="#fff"/>
      </g>
    </g>
    <path id="Tracé_15" data-name="Tracé 15" d="M35.548-41.067h.947v-.781h-.947Zm0-.781,0,4.756h.947v-3.443h-.947Z" transform="translate(25.308 24.3)" fill="#fff"/>
    <g id="Groupe_21" data-name="Groupe 21" transform="translate(0 -75.98)" clip-path="url(#clip-path)">
      <g id="Groupe_15" data-name="Groupe 15" transform="translate(62.438 59.651)">
        <path id="Tracé_16" data-name="Tracé 16" d="M.409.923a1.055,1.055,0,0,0,.137.354.714.714,0,0,0,.255.25.786.786,0,0,0,.4.092.808.808,0,0,0,.4-.092.728.728,0,0,0,.26-.25A1.129,1.129,0,0,0,2,.923a2.078,2.078,0,0,0,.041-.4A2.149,2.149,0,0,0,2,.115a1.1,1.1,0,0,0-.135-.354A.786.786,0,0,0,1.6-.487a.791.791,0,0,0-.4-.1.769.769,0,0,0-.4.1.77.77,0,0,0-.255.248A1.027,1.027,0,0,0,.409.115,2.018,2.018,0,0,0,.368.523a1.952,1.952,0,0,0,.041.4M-.448-.227a1.579,1.579,0,0,1,.916-.94A1.994,1.994,0,0,1,1.2-1.3a2.01,2.01,0,0,1,.734.13A1.563,1.563,0,0,1,2.5-.8a1.58,1.58,0,0,1,.36.572,2.12,2.12,0,0,1,.127.75,2.075,2.075,0,0,1-.127.743,1.6,1.6,0,0,1-.36.57,1.53,1.53,0,0,1-.562.363,2.01,2.01,0,0,1-.734.127A2,2,0,0,1,.468,2.2a1.56,1.56,0,0,1-.558-.363,1.623,1.623,0,0,1-.358-.57A2.075,2.075,0,0,1-.575.523a2.12,2.12,0,0,1,.127-.75" transform="translate(0.575 1.297)" fill="#fff"/>
      </g>
      <g id="Groupe_16" data-name="Groupe 16" transform="translate(66.607 59.651)">
        <path id="Tracé_17" data-name="Tracé 17" d="M.373.039V.518H.392A1.094,1.094,0,0,1,.858.082a1.351,1.351,0,0,1,.585-.137,1.6,1.6,0,0,1,.621.1.939.939,0,0,1,.383.286,1.121,1.121,0,0,1,.2.447,2.774,2.774,0,0,1,.056.582V3.482H1.755V1.537A1.209,1.209,0,0,0,1.621.9.51.51,0,0,0,1.152.691a.648.648,0,0,0-.56.231,1.278,1.278,0,0,0-.173.755v1.8H-.524V.039Z" transform="translate(0.524 0.055)" fill="#fff"/>
      </g>
      <g id="Groupe_17" data-name="Groupe 17" transform="translate(72.424 59.651)">
        <path id="Tracé_18" data-name="Tracé 18" d="M.37.039V.5H.382A1.355,1.355,0,0,1,.832.092a1.218,1.218,0,0,1,.6-.147,1.366,1.366,0,0,1,.594.128.827.827,0,0,1,.409.445,1.431,1.431,0,0,1,.416-.4,1.09,1.09,0,0,1,.621-.175,1.829,1.829,0,0,1,.505.067,1.019,1.019,0,0,1,.4.214.992.992,0,0,1,.259.382,1.531,1.531,0,0,1,.092.57v2.3H3.787V1.532c0-.118-.005-.226-.014-.327A.719.719,0,0,0,3.7.938a.445.445,0,0,0-.176-.18A.64.64,0,0,0,3.209.691a.613.613,0,0,0-.322.075.574.574,0,0,0-.193.2.789.789,0,0,0-.092.279,2.15,2.15,0,0,0-.024.315V3.482H1.634V1.551c0-.1,0-.2-.007-.3A.84.84,0,0,0,1.57.972.423.423,0,0,0,1.4.767.643.643,0,0,0,1.062.691.68.68,0,0,0,.886.722.59.59,0,0,0,.672.835a.685.685,0,0,0-.175.24.977.977,0,0,0-.074.409v2H-.52V.039Z" transform="translate(0.52 0.055)" fill="#fff"/>
      </g>
      <g id="Groupe_18" data-name="Groupe 18" transform="translate(78.314 59.651)">
        <path id="Tracé_19" data-name="Tracé 19" d="M.409.923a1.055,1.055,0,0,0,.137.354.714.714,0,0,0,.255.25.786.786,0,0,0,.4.092.808.808,0,0,0,.4-.092.728.728,0,0,0,.26-.25A1.129,1.129,0,0,0,2,.923a2.078,2.078,0,0,0,.041-.4A2.149,2.149,0,0,0,2,.115a1.1,1.1,0,0,0-.135-.354A.786.786,0,0,0,1.6-.487a.791.791,0,0,0-.4-.1.769.769,0,0,0-.4.1.77.77,0,0,0-.255.248A1.027,1.027,0,0,0,.409.115,2.018,2.018,0,0,0,.368.523a1.952,1.952,0,0,0,.041.4M-.448-.227A1.6,1.6,0,0,1-.091-.8a1.587,1.587,0,0,1,.56-.368A1.979,1.979,0,0,1,1.2-1.3a2.01,2.01,0,0,1,.734.13A1.563,1.563,0,0,1,2.5-.8a1.58,1.58,0,0,1,.36.572,2.12,2.12,0,0,1,.127.75,2.075,2.075,0,0,1-.127.743,1.6,1.6,0,0,1-.36.57,1.53,1.53,0,0,1-.562.363,2.01,2.01,0,0,1-.734.127A1.979,1.979,0,0,1,.469,2.2a1.552,1.552,0,0,1-.56-.363,1.623,1.623,0,0,1-.358-.57A2.075,2.075,0,0,1-.575.523a2.12,2.12,0,0,1,.127-.75" transform="translate(0.575 1.297)" fill="#fff"/>
      </g>
      <g id="Groupe_19" data-name="Groupe 19" transform="translate(82.483 59.651)">
        <path id="Tracé_20" data-name="Tracé 20" d="M.373.039V.518H.392A1.094,1.094,0,0,1,.858.082a1.347,1.347,0,0,1,.587-.137,1.6,1.6,0,0,1,.62.1.939.939,0,0,1,.383.286,1.121,1.121,0,0,1,.2.447,2.774,2.774,0,0,1,.056.582V3.482H1.755V1.537A1.209,1.209,0,0,0,1.621.9.51.51,0,0,0,1.152.691a.648.648,0,0,0-.56.231,1.278,1.278,0,0,0-.173.755v1.8H-.524V.039Z" transform="translate(0.524 0.055)" fill="#fff"/>
      </g>
      <g id="Groupe_20" data-name="Groupe 20" transform="translate(86.278 58.433)">
        <path id="Tracé_21" data-name="Tracé 21" d="M1.059,1.086A.993.993,0,0,0,.922.742.749.749,0,0,0,.674.5.724.724,0,0,0,.287.405.756.756,0,0,0-.1.5.729.729,0,0,0-.36.744a1.076,1.076,0,0,0-.14.349A1.9,1.9,0,0,0-.543,1.5,1.669,1.669,0,0,0-.5,1.9a1.1,1.1,0,0,0,.149.356.829.829,0,0,0,.26.252.68.68,0,0,0,.375.1.73.73,0,0,0,.389-.094.709.709,0,0,0,.25-.248,1.116,1.116,0,0,0,.134-.358A2.015,2.015,0,0,0,1.1,1.5a2.015,2.015,0,0,0-.039-.411m.039,1.7a.977.977,0,0,1-.435.4,1.473,1.473,0,0,1-.609.122,1.475,1.475,0,0,1-.678-.149,1.376,1.376,0,0,1-.483-.407,1.864,1.864,0,0,1-.284-.589,2.447,2.447,0,0,1-.1-.692,2.3,2.3,0,0,1,.1-.669A1.789,1.789,0,0,1-1.106.239a1.444,1.444,0,0,1,.476-.4A1.4,1.4,0,0,1,.034-.307a1.4,1.4,0,0,1,.584.128A1.028,1.028,0,0,1,1.053.2h.012V-1.526h.945V3.226h-.9V2.788Z" transform="translate(1.488 1.526)" fill="#fff"/>
      </g>
    </g>
    <path id="Tracé_23" data-name="Tracé 23" d="M52.872-41.067h.945v-.781h-.945Zm0-.781,0,4.756h.945v-3.443h-.945Z" transform="translate(37.642 24.3)" fill="#fff"/>
    <g id="Groupe_23" data-name="Groupe 23" transform="translate(0 -75.98)" clip-path="url(#clip-path)">
      <g id="Groupe_22" data-name="Groupe 22" transform="translate(92.054 59.653)">
        <path id="Tracé_24" data-name="Tracé 24" d="M.952.77A.439.439,0,0,1,.8.852,1.83,1.83,0,0,1,.609.9C.539.915.469.925.392.934S.241.954.166.968.026,1-.043,1.021a.611.611,0,0,0-.18.091.429.429,0,0,0-.123.142.469.469,0,0,0-.046.221.447.447,0,0,0,.046.212.35.35,0,0,0,.127.137.6.6,0,0,0,.187.07,1.159,1.159,0,0,0,.219.019.816.816,0,0,0,.431-.092A.622.622,0,0,0,.846,1.6a.721.721,0,0,0,.089-.262,2.017,2.017,0,0,0,.017-.214Zm-2.181-.7a1.082,1.082,0,0,1,.166-.553A1.109,1.109,0,0,1-.692-.836a1.656,1.656,0,0,1,.508-.19,2.893,2.893,0,0,1,.568-.055,4.21,4.21,0,0,1,.526.034A1.6,1.6,0,0,1,1.4-.9a.922.922,0,0,1,.36.3.818.818,0,0,1,.14.5V1.687a3.736,3.736,0,0,0,.026.447.863.863,0,0,0,.092.32H1.056c-.017-.055-.031-.11-.043-.164A1.347,1.347,0,0,1,.991,2.12a1.221,1.221,0,0,1-.532.325,2.088,2.088,0,0,1-.625.1A1.686,1.686,0,0,1-.623,2.48,1.062,1.062,0,0,1-1,2.293a.878.878,0,0,1-.25-.318,1.083,1.083,0,0,1-.091-.461.977.977,0,0,1,.1-.481.87.87,0,0,1,.265-.3A1.2,1.2,0,0,1-.6.561,3.325,3.325,0,0,1-.173.47C-.031.446.108.431.247.417A2.759,2.759,0,0,0,.613.355.648.648,0,0,0,.865.241.258.258,0,0,0,.952.016.493.493,0,0,0,.9-.227.355.355,0,0,0,.769-.365.542.542,0,0,0,.575-.434,1.694,1.694,0,0,0,.339-.449.709.709,0,0,0-.1-.329a.525.525,0,0,0-.187.4Z" transform="translate(1.337 1.081)" fill="#fff"/>
      </g>
    </g>
    <path id="Tracé_26" data-name="Tracé 26" d="M56.1-37.093h.943v-4.754H56.1Z" transform="translate(39.942 24.301)" fill="#fff"/>
    <g id="Groupe_30" data-name="Groupe 30" transform="translate(0 -75.98)" clip-path="url(#clip-path)">
      <g id="Groupe_24" data-name="Groupe 24" transform="translate(97.566 59.653)">
        <path id="Tracé_27" data-name="Tracé 27" d="M.933.374A.662.662,0,0,0,.418.187.819.819,0,0,0,.041.264.687.687,0,0,0-.2.454.728.728,0,0,0-.325.692,1.471,1.471,0,0,0-.368.918H1.17A1.108,1.108,0,0,0,.933.374M-.135,2.183a.849.849,0,0,0,.611.207.849.849,0,0,0,.493-.142.594.594,0,0,0,.253-.3h.83a1.578,1.578,0,0,1-.611.887,1.8,1.8,0,0,1-1,.267,1.947,1.947,0,0,1-.733-.132A1.526,1.526,0,0,1-.839,2.6a1.627,1.627,0,0,1-.349-.572,2.1,2.1,0,0,1-.123-.733A1.985,1.985,0,0,1-1.184.572,1.63,1.63,0,0,1-.825,0,1.712,1.712,0,0,1-.272-.386,1.8,1.8,0,0,1,.445-.525a1.635,1.635,0,0,1,.764.168A1.522,1.522,0,0,1,1.743.1a1.889,1.889,0,0,1,.3.652,2.514,2.514,0,0,1,.065.765H-.368a.961.961,0,0,0,.233.666" transform="translate(1.311 0.525)" fill="#fff"/>
      </g>
      <g id="Groupe_25" data-name="Groupe 25" transform="translate(103.25 58.433)">
        <path id="Tracé_28" data-name="Tracé 28" d="M1.059,1.086A1.028,1.028,0,0,0,.922.742.749.749,0,0,0,.674.5.724.724,0,0,0,.287.405.756.756,0,0,0-.1.5.729.729,0,0,0-.36.744a1.076,1.076,0,0,0-.14.349A1.9,1.9,0,0,0-.543,1.5,1.669,1.669,0,0,0-.5,1.9a1.1,1.1,0,0,0,.149.356.811.811,0,0,0,.26.252.676.676,0,0,0,.375.1.73.73,0,0,0,.389-.094.709.709,0,0,0,.25-.248,1.157,1.157,0,0,0,.134-.358A2.144,2.144,0,0,0,1.1,1.5a2.144,2.144,0,0,0-.039-.411m.039,1.7a1,1,0,0,1-.435.4,1.478,1.478,0,0,1-.609.122,1.47,1.47,0,0,1-.678-.149,1.376,1.376,0,0,1-.483-.407,1.793,1.793,0,0,1-.284-.589,2.447,2.447,0,0,1-.1-.692,2.3,2.3,0,0,1,.1-.669A1.721,1.721,0,0,1-1.106.239a1.444,1.444,0,0,1,.476-.4A1.4,1.4,0,0,1,.034-.307a1.4,1.4,0,0,1,.584.128A1.038,1.038,0,0,1,1.053.2h.012V-1.526h.945V3.226h-.9V2.788Z" transform="translate(1.488 1.526)" fill="#fff"/>
      </g>
      <g id="Groupe_26" data-name="Groupe 26" transform="translate(107.292 59.653)">
        <path id="Tracé_29" data-name="Tracé 29" d="M.933.374A.662.662,0,0,0,.418.187.819.819,0,0,0,.041.264.687.687,0,0,0-.2.454.728.728,0,0,0-.325.692,1.471,1.471,0,0,0-.368.918H1.17A1.108,1.108,0,0,0,.933.374M-.135,2.183a.852.852,0,0,0,.611.207.849.849,0,0,0,.493-.142.594.594,0,0,0,.253-.3h.83a1.578,1.578,0,0,1-.611.887,1.8,1.8,0,0,1-1,.267,1.947,1.947,0,0,1-.733-.132A1.526,1.526,0,0,1-.839,2.6a1.627,1.627,0,0,1-.349-.572,2.1,2.1,0,0,1-.123-.733A1.985,1.985,0,0,1-1.184.572,1.63,1.63,0,0,1-.825,0,1.712,1.712,0,0,1-.272-.386,1.8,1.8,0,0,1,.445-.525a1.635,1.635,0,0,1,.764.168A1.522,1.522,0,0,1,1.743.1a1.889,1.889,0,0,1,.3.652,2.514,2.514,0,0,1,.065.765H-.368a.961.961,0,0,0,.233.666" transform="translate(1.311 0.525)" fill="#fff"/>
      </g>
      <g id="Groupe_27" data-name="Groupe 27" transform="translate(111.109 59.651)">
        <path id="Tracé_30" data-name="Tracé 30" d="M.4,1.115a.549.549,0,0,0,.163.18.7.7,0,0,0,.229.1,1.071,1.071,0,0,0,.269.034.9.9,0,0,0,.209-.024.83.83,0,0,0,.2-.072A.5.5,0,0,0,1.62,1.2.357.357,0,0,0,1.678.99c0-.14-.094-.247-.282-.317A5.592,5.592,0,0,0,.608.459C.473.427.338.392.206.35A1.375,1.375,0,0,1-.143.182.8.8,0,0,1-.388-.077.742.742,0,0,1-.482-.458a1.034,1.034,0,0,1,.13-.548A.959.959,0,0,1-.01-1.342a1.485,1.485,0,0,1,.478-.173,3.028,3.028,0,0,1,.546-.051,2.787,2.787,0,0,1,.541.053,1.39,1.39,0,0,1,.469.181A1.072,1.072,0,0,1,2.368-1a1.128,1.128,0,0,1,.161.529h-.9a.407.407,0,0,0-.205-.368.917.917,0,0,0-.44-.1,1.549,1.549,0,0,0-.171.01A.559.559,0,0,0,.646-.88a.335.335,0,0,0-.13.1.247.247,0,0,0-.053.168.257.257,0,0,0,.092.207A.682.682,0,0,0,.8-.277a3.08,3.08,0,0,0,.342.089c.128.027.259.056.392.087a3.731,3.731,0,0,1,.4.115,1.345,1.345,0,0,1,.351.175.854.854,0,0,1,.245.274.8.8,0,0,1,.094.4,1.1,1.1,0,0,1-.137.57,1.11,1.11,0,0,1-.354.37,1.471,1.471,0,0,1-.5.2,2.8,2.8,0,0,1-.573.056A2.79,2.79,0,0,1,.468,2a1.51,1.51,0,0,1-.507-.2,1.124,1.124,0,0,1-.366-.368A1.155,1.155,0,0,1-.561.851h.9A.514.514,0,0,0,.4,1.115" transform="translate(0.561 1.566)" fill="#fff"/>
      </g>
      <g id="Groupe_28" data-name="Groupe 28" transform="translate(116.547 59.653)">
        <path id="Tracé_31" data-name="Tracé 31" d="M.951.77A.439.439,0,0,1,.8.852,1.83,1.83,0,0,1,.609.9C.539.915.468.925.391.934S.241.954.165.968.025,1-.043,1.021a.633.633,0,0,0-.18.091.405.405,0,0,0-.122.142.449.449,0,0,0-.046.221.428.428,0,0,0,.046.212.334.334,0,0,0,.125.137.6.6,0,0,0,.187.07,1.159,1.159,0,0,0,.219.019.816.816,0,0,0,.431-.092A.622.622,0,0,0,.845,1.6a.69.69,0,0,0,.089-.262,2.017,2.017,0,0,0,.017-.214ZM-1.23.069a1.082,1.082,0,0,1,.166-.553A1.109,1.109,0,0,1-.692-.836a1.656,1.656,0,0,1,.508-.19,2.893,2.893,0,0,1,.568-.055,4.21,4.21,0,0,1,.526.034A1.6,1.6,0,0,1,1.395-.9a.91.91,0,0,1,.36.3.818.818,0,0,1,.14.5V1.687a3.4,3.4,0,0,0,.027.447.8.8,0,0,0,.092.32H1.056c-.017-.055-.031-.11-.043-.164A1.347,1.347,0,0,1,.991,2.12a1.226,1.226,0,0,1-.531.325,2.108,2.108,0,0,1-.627.1A1.686,1.686,0,0,1-.624,2.48,1.077,1.077,0,0,1-1,2.293a.856.856,0,0,1-.248-.318,1.058,1.058,0,0,1-.091-.461.978.978,0,0,1,.1-.481.87.87,0,0,1,.265-.3A1.2,1.2,0,0,1-.6.561,3.325,3.325,0,0,1-.174.47C-.032.446.107.431.246.417A2.712,2.712,0,0,0,.612.355.648.648,0,0,0,.864.241.258.258,0,0,0,.951.016.493.493,0,0,0,.9-.227.355.355,0,0,0,.768-.365.53.53,0,0,0,.575-.434,1.676,1.676,0,0,0,.338-.449.709.709,0,0,0-.1-.329a.525.525,0,0,0-.187.4Z" transform="translate(1.336 1.081)" fill="#fff"/>
      </g>
      <g id="Groupe_29" data-name="Groupe 29" transform="translate(120.51 59.651)">
        <path id="Tracé_32" data-name="Tracé 32" d="M.373.039V.518H.392A1.094,1.094,0,0,1,.858.082a1.347,1.347,0,0,1,.587-.137,1.6,1.6,0,0,1,.62.1.939.939,0,0,1,.383.286,1.121,1.121,0,0,1,.2.447,2.774,2.774,0,0,1,.056.582V3.482H1.755V1.537A1.209,1.209,0,0,0,1.621.9.511.511,0,0,0,1.15.691.646.646,0,0,0,.592.923a1.278,1.278,0,0,0-.173.755v1.8H-.524V.039Z" transform="translate(0.524 0.055)" fill="#fff"/>
      </g>
    </g>
    <path id="Tracé_34" data-name="Tracé 34" d="M72.711-41.067h.947v-.781h-.947Zm0-.781,0,4.756h.947v-3.443h-.947Z" transform="translate(51.766 24.3)" fill="#fff"/>
    <g id="Groupe_34" data-name="Groupe 34" transform="translate(0 -75.98)" clip-path="url(#clip-path)">
      <g id="Groupe_31" data-name="Groupe 31" transform="translate(126.193 59.651)">
        <path id="Tracé_35" data-name="Tracé 35" d="M.37.039V.5H.382A1.355,1.355,0,0,1,.832.092a1.222,1.222,0,0,1,.6-.147,1.36,1.36,0,0,1,.594.128.827.827,0,0,1,.409.445,1.431,1.431,0,0,1,.416-.4,1.09,1.09,0,0,1,.621-.175,1.829,1.829,0,0,1,.505.067,1.019,1.019,0,0,1,.4.214,1.015,1.015,0,0,1,.26.382,1.566,1.566,0,0,1,.092.57v2.3H3.789V1.532c0-.118-.007-.226-.015-.327A.719.719,0,0,0,3.7.938a.435.435,0,0,0-.176-.18A.64.64,0,0,0,3.209.691a.613.613,0,0,0-.322.075.574.574,0,0,0-.193.2.789.789,0,0,0-.092.279,2.15,2.15,0,0,0-.024.315V3.482H1.634V1.551c0-.1,0-.2-.007-.3A.84.84,0,0,0,1.57.972.423.423,0,0,0,1.4.767.643.643,0,0,0,1.062.691.692.692,0,0,0,.886.722.59.59,0,0,0,.672.835a.685.685,0,0,0-.175.24.977.977,0,0,0-.074.409v2H-.52V.039Z" transform="translate(0.52 0.055)" fill="#fff"/>
      </g>
      <g id="Groupe_32" data-name="Groupe 32" transform="translate(132.042 59.653)">
        <path id="Tracé_36" data-name="Tracé 36" d="M.952.77A.439.439,0,0,1,.8.852,1.951,1.951,0,0,1,.609.9C.539.915.469.925.392.934S.241.954.166.968.026,1-.043,1.021a.633.633,0,0,0-.18.091.429.429,0,0,0-.123.142.469.469,0,0,0-.046.221.447.447,0,0,0,.046.212.35.35,0,0,0,.127.137.6.6,0,0,0,.187.07,1.159,1.159,0,0,0,.219.019.816.816,0,0,0,.431-.092A.622.622,0,0,0,.846,1.6a.721.721,0,0,0,.089-.262,2.017,2.017,0,0,0,.017-.214Zm-2.181-.7a1.082,1.082,0,0,1,.166-.553A1.109,1.109,0,0,1-.692-.836a1.656,1.656,0,0,1,.508-.19,2.893,2.893,0,0,1,.568-.055,4.21,4.21,0,0,1,.526.034A1.6,1.6,0,0,1,1.4-.9a.922.922,0,0,1,.36.3.818.818,0,0,1,.14.5V1.687a3.736,3.736,0,0,0,.026.447.863.863,0,0,0,.092.32H1.056c-.017-.055-.031-.11-.043-.164A1.347,1.347,0,0,1,.991,2.12a1.226,1.226,0,0,1-.531.325,2.108,2.108,0,0,1-.627.1A1.686,1.686,0,0,1-.623,2.48,1.077,1.077,0,0,1-1,2.293a.878.878,0,0,1-.25-.318,1.083,1.083,0,0,1-.091-.461.977.977,0,0,1,.1-.481.87.87,0,0,1,.265-.3A1.2,1.2,0,0,1-.6.561,3.325,3.325,0,0,1-.173.47C-.031.446.108.431.247.417A2.712,2.712,0,0,0,.613.355.636.636,0,0,0,.865.241.263.263,0,0,0,.952.016.493.493,0,0,0,.9-.227.355.355,0,0,0,.769-.365.53.53,0,0,0,.575-.434,1.694,1.694,0,0,0,.339-.449.709.709,0,0,0-.1-.329a.525.525,0,0,0-.187.4Z" transform="translate(1.337 1.081)" fill="#fff"/>
      </g>
      <g id="Groupe_33" data-name="Groupe 33" transform="translate(136.006 59.744)">
        <path id="Tracé_37" data-name="Tracé 37" d="M.968,1.432V.952H.949a1.075,1.075,0,0,1-.466.433A1.373,1.373,0,0,1-.1,1.519a1.64,1.64,0,0,1-.62-.1.907.907,0,0,1-.383-.282A1.11,1.11,0,0,1-1.3.689,2.786,2.786,0,0,1-1.359.107V-2.011h.945V-.066A1.227,1.227,0,0,0-.282.571.516.516,0,0,0,.19.779.651.651,0,0,0,.748.548,1.278,1.278,0,0,0,.921-.207v-1.8h.943V1.432Z" transform="translate(1.359 2.011)" fill="#fff"/>
      </g>
    </g>
    <g id="Groupe_35" data-name="Groupe 35" transform="translate(139.589 -16.235)">
      <path id="Tracé_39" data-name="Tracé 39" d="M.044,0H1.121l.606.9.6-.9H3.367L2.237,1.611l1.27,1.832H2.432L1.712,2.357.994,3.443H-.062L1.174,1.631Z" transform="translate(0.062)" fill="#fff"/>
    </g>
    <g id="Groupe_48" data-name="Groupe 48" transform="translate(0 -75.98)" clip-path="url(#clip-path)">
      <g id="Groupe_36" data-name="Groupe 36" transform="translate(145.219 58.433)">
        <path id="Tracé_40" data-name="Tracé 40" d="M1.059,1.086A.993.993,0,0,0,.922.742.749.749,0,0,0,.674.5.724.724,0,0,0,.287.405.756.756,0,0,0-.1.5.729.729,0,0,0-.36.744a1.076,1.076,0,0,0-.14.349A1.9,1.9,0,0,0-.543,1.5,1.669,1.669,0,0,0-.5,1.9a1.1,1.1,0,0,0,.149.356.829.829,0,0,0,.26.252.68.68,0,0,0,.375.1.73.73,0,0,0,.389-.094.709.709,0,0,0,.25-.248,1.157,1.157,0,0,0,.134-.358A2.015,2.015,0,0,0,1.1,1.5a2.015,2.015,0,0,0-.039-.411m.039,1.7a.986.986,0,0,1-.435.4,1.473,1.473,0,0,1-.609.122,1.475,1.475,0,0,1-.678-.149,1.376,1.376,0,0,1-.483-.407,1.867,1.867,0,0,1-.286-.589,2.509,2.509,0,0,1-.1-.692,2.361,2.361,0,0,1,.1-.669A1.793,1.793,0,0,1-1.106.239a1.444,1.444,0,0,1,.476-.4A1.4,1.4,0,0,1,.034-.307a1.4,1.4,0,0,1,.584.128A1.028,1.028,0,0,1,1.053.2h.012V-1.526h.945V3.226h-.9V2.788Z" transform="translate(1.488 1.526)" fill="#fff"/>
      </g>
      <g id="Groupe_37" data-name="Groupe 37" transform="translate(149.261 59.653)">
        <path id="Tracé_41" data-name="Tracé 41" d="M.933.374A.659.659,0,0,0,.418.187.819.819,0,0,0,.041.264.665.665,0,0,0-.2.454.669.669,0,0,0-.323.692,1.308,1.308,0,0,0-.368.918H1.17A1.108,1.108,0,0,0,.933.374M-.135,2.183a.851.851,0,0,0,.613.207.848.848,0,0,0,.491-.142.6.6,0,0,0,.253-.3h.832a1.58,1.58,0,0,1-.613.887,1.8,1.8,0,0,1-1,.267,1.953,1.953,0,0,1-.733-.132A1.526,1.526,0,0,1-.839,2.6a1.653,1.653,0,0,1-.349-.572,2.1,2.1,0,0,1-.123-.733A1.985,1.985,0,0,1-1.184.572,1.681,1.681,0,0,1-.825,0,1.7,1.7,0,0,1-.27-.386,1.79,1.79,0,0,1,.445-.525a1.635,1.635,0,0,1,.764.168A1.522,1.522,0,0,1,1.743.1a1.889,1.889,0,0,1,.3.652,2.461,2.461,0,0,1,.065.765H-.368a.961.961,0,0,0,.233.666" transform="translate(1.311 0.525)" fill="#fff"/>
      </g>
      <g id="Groupe_38" data-name="Groupe 38" transform="translate(154.733 58.433)">
        <path id="Tracé_42" data-name="Tracé 42" d="M0,.809V.177H.565V-.09A1.039,1.039,0,0,1,.851-.843a1.154,1.154,0,0,1,.863-.293c.086,0,.169,0,.255.01s.164.012.245.017V-.4a2.8,2.8,0,0,0-.344-.019.362.362,0,0,0-.277.089.437.437,0,0,0-.082.3V.177H2.16V.809H1.51V3.618H.565V.809Z" transform="translate(0 1.136)" fill="#fff"/>
      </g>
      <g id="Groupe_39" data-name="Groupe 39" transform="translate(157.14 59.653)">
        <path id="Tracé_43" data-name="Tracé 43" d="M.933.374A.662.662,0,0,0,.418.187.819.819,0,0,0,.041.264.665.665,0,0,0-.2.454.7.7,0,0,0-.325.692,1.471,1.471,0,0,0-.368.918H1.17A1.108,1.108,0,0,0,.933.374M-.135,2.183a.849.849,0,0,0,.611.207.849.849,0,0,0,.493-.142.6.6,0,0,0,.253-.3h.83a1.578,1.578,0,0,1-.611.887,1.8,1.8,0,0,1-1,.267,1.947,1.947,0,0,1-.733-.132A1.526,1.526,0,0,1-.839,2.6a1.627,1.627,0,0,1-.349-.572,2.1,2.1,0,0,1-.123-.733A1.985,1.985,0,0,1-1.184.572,1.63,1.63,0,0,1-.825,0,1.712,1.712,0,0,1-.272-.386,1.8,1.8,0,0,1,.445-.525a1.635,1.635,0,0,1,.764.168A1.522,1.522,0,0,1,1.743.1a1.889,1.889,0,0,1,.3.652,2.514,2.514,0,0,1,.065.765H-.368a.961.961,0,0,0,.233.666" transform="translate(1.311 0.525)" fill="#fff"/>
      </g>
      <g id="Groupe_40" data-name="Groupe 40" transform="translate(161.123 59.651)">
        <path id="Tracé_44" data-name="Tracé 44" d="M.373.039v.64H.385a1.158,1.158,0,0,1,.181-.3A1.2,1.2,0,0,1,.827.149,1.3,1.3,0,0,1,1.137,0a1.185,1.185,0,0,1,.346-.053.746.746,0,0,1,.207.034V.857C1.645.849,1.592.842,1.53.835a1.676,1.676,0,0,0-.18-.01,1,1,0,0,0-.44.086.791.791,0,0,0-.289.238A.985.985,0,0,0,.465,1.5a1.916,1.916,0,0,0-.046.431V3.482H-.524V.039Z" transform="translate(0.524 0.055)" fill="#fff"/>
      </g>
      <g id="Groupe_41" data-name="Groupe 41" transform="translate(163.735 59.651)">
        <path id="Tracé_45" data-name="Tracé 45" d="M.37.039V.5H.384A1.319,1.319,0,0,1,.832.092a1.222,1.222,0,0,1,.6-.147,1.36,1.36,0,0,1,.594.128.833.833,0,0,1,.409.445,1.431,1.431,0,0,1,.416-.4,1.09,1.09,0,0,1,.621-.175,1.829,1.829,0,0,1,.505.067,1.019,1.019,0,0,1,.4.214,1.015,1.015,0,0,1,.26.382,1.566,1.566,0,0,1,.092.57v2.3H3.789V1.532c0-.118-.007-.226-.015-.327A.719.719,0,0,0,3.7.938a.445.445,0,0,0-.176-.18A.64.64,0,0,0,3.209.691a.613.613,0,0,0-.322.075.574.574,0,0,0-.193.2.789.789,0,0,0-.092.279,2.15,2.15,0,0,0-.024.315V3.482H1.634V1.551c0-.1,0-.2-.007-.3A.8.8,0,0,0,1.569.972.41.41,0,0,0,1.4.767.643.643,0,0,0,1.062.691.692.692,0,0,0,.886.722.59.59,0,0,0,.672.835a.685.685,0,0,0-.175.24.977.977,0,0,0-.074.409v2H-.52V.039Z" transform="translate(0.52 0.055)" fill="#fff"/>
      </g>
      <g id="Groupe_42" data-name="Groupe 42" transform="translate(169.565 59.653)">
        <path id="Tracé_46" data-name="Tracé 46" d="M.933.374A.662.662,0,0,0,.418.187.819.819,0,0,0,.041.264.665.665,0,0,0-.2.454.7.7,0,0,0-.325.692,1.471,1.471,0,0,0-.368.918H1.17A1.108,1.108,0,0,0,.933.374M-.135,2.183a.849.849,0,0,0,.611.207.849.849,0,0,0,.493-.142.6.6,0,0,0,.253-.3h.83a1.578,1.578,0,0,1-.611.887,1.8,1.8,0,0,1-1,.267,1.947,1.947,0,0,1-.733-.132A1.526,1.526,0,0,1-.839,2.6a1.627,1.627,0,0,1-.349-.572,2.1,2.1,0,0,1-.123-.733A1.985,1.985,0,0,1-1.184.572,1.63,1.63,0,0,1-.825,0,1.712,1.712,0,0,1-.272-.386,1.8,1.8,0,0,1,.445-.525a1.635,1.635,0,0,1,.764.168A1.522,1.522,0,0,1,1.743.1a1.889,1.889,0,0,1,.3.652,2.514,2.514,0,0,1,.065.765H-.368a.961.961,0,0,0,.233.666" transform="translate(1.311 0.525)" fill="#fff"/>
      </g>
      <g id="Groupe_43" data-name="Groupe 43" transform="translate(27.61 74.307)">
        <path id="Tracé_47" data-name="Tracé 47" d="M17.792.011C17.513.237,4.124,12.906-8.856,8.6c-3.234-1.075-8.007-2.272-10.818-8.62-1.82.7-3.612,1.429-5.317,2.143,3.408,6.035,9.482,10.694,16.45,11.239C3.826,14.333,11.3,9.537,16.47,4.461,31,23.963,28.817,39.956,56.129,55.75,28.459,37.148,28.557,9.537,17.792.011" transform="translate(24.991 0.016)" fill="#fff"/>
      </g>
      <g id="Groupe_44" data-name="Groupe 44" transform="translate(2.986 69.759)">
        <path id="Tracé_48" data-name="Tracé 48" d="M19.292.009S-8.063-1.9-27.1,31.046c0,0,22.717-24.217,46.39-31.037" transform="translate(27.098 0.012)" fill="#fff"/>
      </g>
      <g id="Groupe_45" data-name="Groupe 45" transform="translate(0 20.475)">
        <path id="Tracé_49" data-name="Tracé 49" d="M8.172,7.825C3.891,5.5-.732,3.889-3.986.053c-1.433-1.686-2.039-3.109.336-4.047a18.581,18.581,0,0,1,8.572-.719,33.742,33.742,0,0,1,7.945,1.832c1.529.553,3.176,1.318,4.61.472C7.535-10.946,1.8-10.989,1.8-10.989v0c-4.453.01-9.655.9-12.179,4.7-3.08,4.644.959,7.079,4.446,10.118,3.751,3.277,9.655,5.244,13.79,7.86,6.606,4.182,5.4,15.64,5.369,22.661a20.836,20.836,0,0,0,1.495,7.675,26.066,26.066,0,0,1,5.714-2.037A40.722,40.722,0,0,1,19.14,28.847c.012-8.568-3.088-16.739-10.968-21.023" transform="translate(11.479 10.991)" fill="#fff"/>
      </g>
      <g id="Groupe_46" data-name="Groupe 46" transform="translate(21.869 0.001)">
        <path id="Tracé_50" data-name="Tracé 50" d="M21.465,2.594C16.658.97,14.475,7.044,11.858,9.9A21.591,21.591,0,0,1-.189,15.932c-5.136.6-12.326-2.559-15.83-10.029C-21.59-5.977-28.2-7.212-29.948,4.7c-.1.671-.164,1.361-.2,2.058.543,7.341,5.524,12.278,8.9,14.4a9.671,9.671,0,0,0-1.621-4.588c-2.523-3.624-3.878-13.795-.621-14.444C-21.02,1.807-17.673,19.036-.664,18,4.808,17.663,10.791,16.4,14.718,12.6a34.958,34.958,0,0,0,3.643-4.163c.466-.615,1.027-2.368,1.652-1.316,2.534,4.8-1.056,11.609-3.722,15.558a5.328,5.328,0,0,0,2.138-1.693C26.375,13.9,25.863,3.877,21.465,2.594" transform="translate(30.15 3.644)" fill="#fff"/>
      </g>
      <g id="Groupe_47" data-name="Groupe 47" transform="translate(109.761 33.146)">
        <path id="Tracé_51" data-name="Tracé 51" d="M7.565,7.762c0-.368.041-2.037.041-2.405-.041-.2-.082-1.263-.082-1.465,0-.327.082-1.673.082-1.958,0-.2-.041-1.058-.041-1.222s.041-.936.041-1.1c0-.2-.082-1.183-.082-1.344,0-.572.041-2.936.041-3.424a4.634,4.634,0,0,0-.651-2.527,5.026,5.026,0,0,0-.447-.449,4.741,4.741,0,0,1-.409-.529,7.244,7.244,0,0,0-2.277-1.426A13.275,13.275,0,0,0-.979-10.9a23.44,23.44,0,0,0-3.5.284,9.664,9.664,0,0,0-1.548.45c-.49.161-1.019.284-1.546.447a7.859,7.859,0,0,0-1.019.449A2.282,2.282,0,0,0-9-8.09V-7.6c0,.082-.041.611-.041.734S-9-6.216-9-6.094c0,.205-.082,1.181-.082,1.387a.974.974,0,0,0,1.1.976,9.066,9.066,0,0,0,1.507-.447,5.136,5.136,0,0,1,.692-.286c.123-.039.286-.039.407-.08.08,0,.488-.082.692-.123a9.8,9.8,0,0,1,1.465-.406c.163-.043,1.994-.123,2.157-.123a5.777,5.777,0,0,1,1.75.284A1.573,1.573,0,0,1,1.746-3.771c0,.366-.449.693-.9.693C.729-3.078.241-3.2.118-3.2H-.125c-.163-.041-.488-.123-.529-.123A.605.605,0,0,0-.94-3.364c-.122,0-.774.082-.894.082s-.529-.041-.611-.041A6.077,6.077,0,0,0-3.3-3.2a8.116,8.116,0,0,0-.978.039,6.94,6.94,0,0,0-1.507.407,3.617,3.617,0,0,1-.651.163A8.21,8.21,0,0,0-8.428-1.407c-.243.245-.447.529-.692.815a2.436,2.436,0,0,0-.325.327,3.532,3.532,0,0,0-.9,1.507A2.976,2.976,0,0,0-10.626,2.5c0,.288.041.573.041.817.041.611,0,1.183.082,1.753a11.684,11.684,0,0,0,.731,1.833A15.441,15.441,0,0,0-8.142,8.82a6.712,6.712,0,0,0,1.676.9,11.762,11.762,0,0,1-.743-5.454s-.39.25-.649.027c-.322-.264-.106-.474-.219-.728-.13-.31-1.176.157-1.176.157A1.374,1.374,0,0,1-8.671,2.3a.428.428,0,0,0,.127-.368c-.14-.757.193-.762.193-.762.113.009.13.315.192.377A1.7,1.7,0,0,1-8.082.983s.065-.262.257.4a.424.424,0,0,0,.029.055c0-.466.238-.341.238-.341.1.084.045.253.065.3.11-.125.231-.265.31-.25a.3.3,0,0,1,.219.154.354.354,0,0,1,0,.43A4.786,4.786,0,0,1-3.944,3.441c.68.945,1.132,2.676,1.614,3.073C-.091,8.358,1.029,2.859,1.618,2.455c.686-.472.955,1.931.741,3.039,0,0,.719-1.917,1.376-1.744.539.144-.223,3.711-.223,3.711l.938-.938c.871-1.748,1.736-.534.591,3.563h.651c1.019,0,1.955-.327,1.955-1.3,0-.164-.082-.858-.082-1.02" transform="translate(10.626 10.903)" fill="#fff"/>
      </g>
    </g>
  </g>
</svg>
